<svg id="Lager_1" data-name="Lager 1" xmlns="http://www.w3.org/2000/svg" viewBox="0 0 73.65 73.51"><path d="M18.22,32c4.31,0,8.62,0,12.93,0,.81,0,1-.25,1-1q0-12.75,0-25.52a4.81,4.81,0,0,1,3-4.81,4.71,4.71,0,0,1,6.44,3.63,9.73,9.73,0,0,1,.1,1.43c0,8.45,0,16.9,0,25.35,0,.77.21.93.94.92q12.81,0,25.61,0a4.81,4.81,0,0,1,4.82,3.07,4.73,4.73,0,0,1-4.2,6.41c-.39,0-.79,0-1.19,0q-12.54,0-25.09,0c-.71,0-.89.18-.89.89,0,8.53,0,17.06,0,25.6A4.8,4.8,0,0,1,38,73a4.69,4.69,0,0,1-5.77-3.64,8.57,8.57,0,0,1-.13-1.6q0-12.68,0-25.35c0-.75-.18-.94-.93-.94q-12.8,0-25.6,0a4.84,4.84,0,0,1-4.82-3A4.73,4.73,0,0,1,5,32c2.64-.07,5.27,0,7.91,0C14.7,32,16.46,32,18.22,32Z"/></svg>